<?xml version="1.0" standalone="no"?>
<!DOCTYPE svg PUBLIC "-//W3C//DTD SVG 20010904//EN"
 "http://www.w3.org/TR/2001/REC-SVG-20010904/DTD/svg10.dtd">
<svg version="1.0" xmlns="http://www.w3.org/2000/svg"
 width="1280.000000pt" height="1280.000000pt" viewBox="0 0 1280.000000 1280.000000"
 preserveAspectRatio="xMidYMid meet">

<g transform="translate(0.000000,1280.000000) scale(0.100000,-0.100000)"
fill="white" stroke="none">
<path d="M6257 10016 c-75 -75 -103 -110 -134 -172 -37 -76 -38 -81 -38 -183
0 -100 2 -111 35 -186 20 -44 66 -128 102 -186 83 -130 108 -193 108 -265 0
-72 -19 -108 -70 -128 -55 -22 -78 -20 -136 9 -124 62 -146 195 -65 394 13 33
17 50 9 44 -240 -184 -332 -315 -367 -521 l-17 -102 -44 62 c-61 84 -176 198
-251 248 -204 139 -436 172 -709 99 -95 -25 -300 -100 -300 -109 0 -4 25 -11
56 -15 112 -14 284 -123 419 -267 144 -153 190 -248 246 -502 22 -99 46 -209
53 -243 8 -35 11 -63 7 -63 -4 0 -47 12 -95 26 -588 170 -975 86 -1541 -336
-163 -122 -640 -522 -605 -508 8 3 61 24 118 47 135 55 235 80 351 87 243 16
374 -59 674 -384 176 -190 290 -296 400 -369 393 -261 850 -256 1493 17 l118
49 90 -15 c111 -20 363 -14 470 10 l70 16 127 -54 c567 -244 999 -279 1354
-110 172 81 315 198 541 444 184 200 284 289 389 340 100 50 173 64 296 56
116 -7 216 -32 351 -87 57 -23 110 -44 118 -47 34 -14 -418 367 -587 495 -312
234 -555 358 -796 407 -226 47 -485 24 -794 -68 -89 -26 -113 -30 -113 -19 0
38 91 563 104 599 80 226 300 420 566 500 105 32 106 29 -50 69 -190 48 -342
67 -490 62 -148 -6 -214 -21 -316 -76 -125 -66 -230 -172 -336 -337 -29 -46
-56 -83 -60 -84 -5 0 -8 28 -8 63 -1 140 -42 330 -100 453 -48 104 -96 169
-240 326 -135 145 -188 222 -229 328 -30 76 -61 208 -61 255 0 14 -4 25 -9 25
-5 0 -52 -42 -104 -94z"/>
<path d="M2465 6594 c-256 -42 -438 -189 -475 -385 -31 -162 19 -368 127 -526
23 -35 41 -63 39 -63 -2 0 -25 10 -52 23 -43 19 -65 22 -174 22 -136 0 -217
-19 -304 -70 -289 -169 -286 -661 7 -981 177 -193 397 -285 684 -285 157 -1
243 19 367 84 112 57 238 182 289 287 48 97 72 217 63 325 -14 197 -82 331
-289 577 -154 183 -198 244 -204 282 -7 42 2 79 23 100 32 32 142 11 158 -29
16 -44 6 -78 -35 -117 -63 -60 -52 -108 38 -171 109 -77 301 -21 390 113 40
61 80 163 92 237 39 242 -140 471 -431 553 -72 21 -249 34 -313 24z m290 -49
c109 -28 223 -92 295 -164 87 -88 122 -160 128 -265 6 -97 -9 -170 -55 -263
-57 -116 -144 -180 -262 -190 -46 -4 -64 0 -101 19 -25 14 -55 40 -68 59 l-23
34 23 20 c48 42 68 77 68 119 0 72 -52 117 -136 118 -81 2 -119 -45 -112 -139
5 -59 24 -86 193 -288 173 -205 238 -311 281 -450 24 -81 25 -257 0 -340 -55
-189 -208 -343 -418 -421 -64 -24 -91 -28 -220 -32 -164 -5 -264 10 -378 55
-361 144 -594 544 -515 881 39 163 133 265 290 314 55 17 95 22 185 23 104 0
120 -3 171 -26 79 -37 133 -90 171 -167 29 -59 33 -76 33 -147 0 -58 -5 -89
-18 -113 l-18 -33 -40 35 c-31 29 -47 36 -80 36 -84 0 -125 -45 -117 -130 9
-95 95 -152 193 -130 60 13 93 31 126 67 115 123 75 295 -132 568 -153 203
-204 327 -204 505 0 87 4 116 24 168 53 141 198 247 391 288 79 17 240 11 325
-11z m-377 -1337 c9 -128 -59 -208 -184 -216 -62 -4 -65 -3 -99 31 -30 30 -35
42 -35 80 0 37 5 49 26 66 42 33 90 28 130 -14 18 -19 39 -35 47 -35 36 0 76
89 78 174 l1 51 15 -35 c9 -19 18 -65 21 -102z"/>
<path d="M10005 6426 c-17 -12 -17 -19 18 -152 68 -260 81 -363 82 -609 0
-181 -3 -234 -19 -300 -54 -232 -141 -397 -288 -547 -314 -318 -843 -487
-1693 -539 -290 -18 -1408 1 -1431 23 -4 4 47 121 113 260 66 139 136 294 156
343 81 205 106 476 58 623 -46 142 -150 219 -282 210 -112 -8 -185 -64 -196
-150 -5 -36 -2 -42 40 -81 38 -34 48 -52 58 -96 42 -198 -107 -620 -347 -983
-40 -60 -78 -105 -100 -119 -35 -22 -39 -22 -158 -11 -352 34 -764 38 -1081
12 -498 -42 -859 -162 -1032 -342 -23 -23 -66 -82 -96 -131 -195 -310 -191
-565 12 -768 119 -118 274 -194 496 -240 147 -31 424 -34 555 -6 502 108 1104
488 1418 895 40 52 72 98 72 103 0 13 415 11 895 -6 487 -17 1264 -19 1510 -5
312 19 606 54 858 105 440 88 801 245 1045 457 354 307 467 738 315 1198 -133
403 -482 762 -820 844 -97 24 -138 27 -158 12z m148 -41 c293 -76 573 -331
737 -670 183 -378 171 -770 -32 -1081 -62 -94 -226 -262 -319 -326 -401 -275
-953 -419 -1803 -468 -255 -14 -929 -12 -1447 5 -244 8 -554 15 -688 17 l-244
3 -71 -98 c-86 -121 -311 -342 -454 -447 -312 -229 -635 -387 -932 -456 -392
-91 -879 19 -1082 245 -152 169 -162 377 -32 631 88 171 184 270 339 348 313
157 864 231 1522 202 142 -6 302 -15 357 -21 119 -13 157 -8 203 27 74 56 259
379 352 612 82 207 118 409 92 520 -10 39 -23 60 -57 91 -57 51 -58 79 -6 131
39 39 91 60 151 60 179 0 280 -185 251 -464 -21 -210 -58 -315 -261 -734 -54
-111 -100 -211 -104 -221 -5 -16 1 -19 47 -25 252 -28 1350 -33 1628 -7 1144
107 1709 466 1825 1160 26 152 17 446 -19 631 -23 122 -64 288 -81 333 -6 14
-1 17 32 17 21 0 64 -7 96 -15z"/>
<path d="M4808 3910 c-122 -15 -213 -55 -290 -128 -166 -155 -116 -332 113
-403 159 -50 385 3 734 170 245 118 569 330 543 356 -9 9 -1034 14 -1100 5z
m1030 -35 c6 -5 -135 -103 -238 -165 -320 -194 -689 -330 -863 -318 -165 12
-287 99 -287 204 0 76 77 176 174 226 88 45 119 51 286 58 145 6 920 2 928 -5z"/>
<path d="M6360 6424 c-117 -23 -262 -96 -323 -163 -58 -64 -86 -136 -72 -182
7 -21 11 -21 107 -14 142 10 155 -5 123 -145 -15 -63 -66 -241 -71 -249 -2 -2
-19 10 -39 28 -44 38 -70 45 -149 39 -88 -7 -188 -61 -261 -140 -159 -171
-322 -429 -384 -607 -23 -66 -31 -78 -40 -67 -27 32 -121 26 -121 -7 0 -14
-47 -63 -54 -56 -8 7 28 99 102 260 88 190 102 230 102 281 0 105 -66 154
-194 146 -83 -6 -154 -37 -221 -99 -23 -21 -45 -39 -48 -39 -2 0 -12 18 -21
39 -46 116 -152 162 -271 118 -118 -44 -168 -134 -84 -152 17 -4 32 -12 35
-19 9 -22 -23 -97 -159 -376 -178 -363 -230 -485 -223 -516 13 -48 47 -59 196
-59 159 0 173 6 220 88 17 28 62 133 101 232 109 279 170 431 177 443 4 6 20
14 35 17 48 12 40 -15 -79 -286 -96 -220 -107 -327 -39 -408 56 -66 160 -89
240 -52 85 38 195 162 271 305 l34 61 0 -69 c0 -38 5 -86 12 -107 16 -56 70
-114 136 -146 47 -23 70 -28 132 -28 105 0 174 40 270 156 l48 57 29 -56 c21
-41 42 -66 78 -90 46 -31 55 -34 111 -30 51 3 72 10 118 41 120 80 246 280
254 403 4 57 2 68 -19 90 -14 15 -33 24 -53 24 -36 0 -46 -6 -69 -40 l-17 -24
0 48 c0 86 73 279 215 565 73 146 145 302 160 346 33 95 45 231 25 289 -16 49
-63 102 -111 127 -39 19 -158 32 -209 23z m157 -39 c99 -29 142 -91 143 -204
0 -122 -25 -189 -205 -553 -177 -357 -244 -574 -192 -625 18 -17 20 -17 50 20
57 67 103 44 95 -48 -9 -111 -127 -297 -234 -371 -126 -87 -250 -36 -290 118
-8 28 -15 52 -17 54 -2 2 -33 -34 -69 -79 -76 -97 -164 -162 -233 -173 -90
-13 -205 36 -252 107 -38 58 -44 174 -14 285 52 189 232 486 404 666 106 110
267 160 347 106 19 -13 44 -41 54 -63 l20 -39 14 34 c24 58 91 295 98 349 14
110 -19 137 -158 126 -48 -3 -88 -3 -88 2 1 87 112 203 251 259 103 42 198 52
276 29z m-1821 -856 c39 -24 67 -67 85 -129 7 -25 14 -47 15 -49 2 -2 31 22
66 54 79 74 164 115 236 115 65 0 115 -20 137 -54 32 -49 17 -112 -78 -317
-47 -102 -93 -212 -103 -243 -16 -51 -16 -58 -2 -72 14 -14 18 -14 46 0 17 9
39 29 48 46 21 34 34 41 63 33 28 -7 27 -17 -13 -98 -71 -147 -182 -273 -276
-312 -46 -20 -111 -12 -159 20 -90 60 -90 173 1 377 124 280 140 344 92 356
-47 12 -77 -7 -106 -66 -14 -30 -65 -156 -113 -280 -96 -248 -151 -372 -183
-410 -20 -24 -23 -25 -162 -25 -129 0 -143 2 -156 19 -8 11 -11 29 -8 40 12
40 148 332 244 526 151 303 165 355 103 375 -46 15 -49 22 -22 51 57 63 179
84 245 43z"/>
<path d="M5932 5415 c-45 -51 -111 -173 -137 -253 -36 -112 -17 -202 44 -202
40 0 57 25 74 113 9 45 36 122 64 180 36 78 47 114 48 152 0 47 -2 50 -26 53
-21 2 -35 -7 -67 -43z m64 -24 c-3 -22 -26 -81 -51 -133 -28 -58 -52 -126 -62
-176 -12 -62 -21 -83 -34 -87 -30 -10 -39 3 -39 59 0 86 66 246 137 334 43 53
58 54 49 3z"/>
<path d="M6892 6193 c-99 -48 -168 -190 -141 -288 33 -117 192 -160 290 -78
106 90 105 307 -1 364 -42 23 -104 24 -148 2z m150 -39 c46 -41 59 -120 37
-210 -45 -177 -304 -167 -301 12 1 78 64 182 127 210 39 18 110 12 137 -12z"/>
<path d="M9179 5806 c-80 -22 -148 -68 -223 -147 -132 -140 -266 -369 -322
-550 -21 -66 -27 -107 -28 -189 -1 -96 1 -110 27 -162 47 -97 136 -157 243
-166 79 -6 147 23 221 95 l52 51 36 -25 c50 -34 109 -53 164 -53 141 0 284
160 353 395 17 57 20 80 12 93 -19 30 -50 25 -93 -14 -23 -20 -41 -31 -41 -25
0 16 58 165 110 281 174 391 145 479 -110 336 -56 -31 -104 -56 -108 -55 -4 0
-18 23 -32 51 -43 89 -136 118 -261 84z m171 -34 c44 -22 80 -75 80 -118 0
-19 5 -34 10 -34 6 0 65 30 131 66 83 46 132 67 157 68 35 1 37 -1 40 -33 4
-41 -25 -126 -124 -359 -84 -196 -106 -268 -92 -294 13 -27 26 -22 75 28 58
60 70 49 42 -42 -51 -166 -141 -297 -233 -340 -82 -38 -158 -28 -250 35 l-43
30 -54 -56 c-97 -100 -194 -126 -294 -79 -62 28 -111 77 -138 136 -30 64 -29
196 2 305 56 199 243 503 375 610 105 85 237 117 316 77z"/>
<path d="M9227 5526 c-84 -86 -167 -269 -167 -367 0 -42 34 -89 64 -89 9 0 30
28 50 68 35 71 186 415 186 426 0 3 -20 6 -45 6 -41 0 -50 -5 -88 -44z m74
-28 c-85 -198 -166 -375 -177 -387 -11 -12 -15 -10 -25 13 -18 39 3 132 53
234 44 90 119 182 149 182 18 0 18 -1 0 -42z"/>
<path d="M7401 5714 c-30 -8 -77 -27 -105 -42 -66 -35 -156 -122 -156 -150 0
-30 43 -56 79 -49 43 9 55 -11 47 -79 -11 -97 -56 -212 -178 -454 -127 -253
-137 -287 -93 -316 21 -14 47 -15 194 -8 100 4 177 11 185 18 14 12 49 104
144 386 33 96 76 217 97 268 35 87 39 93 64 90 21 -2 27 -9 29 -36 5 -52 -66
-244 -190 -515 -32 -70 -58 -139 -58 -152 0 -15 9 -30 23 -39 31 -20 169 -29
257 -17 112 16 101 -3 253 441 120 348 115 338 151 324 36 -14 5 -122 -92
-323 l-57 -116 0 -97 c0 -91 2 -99 30 -140 94 -132 279 -124 421 19 127 129
173 307 91 353 -25 14 -30 13 -69 -8 -23 -12 -43 -20 -46 -18 -2 3 26 71 63
153 130 287 135 421 19 479 -89 44 -213 15 -329 -76 l-49 -38 -32 43 c-50 65
-97 90 -169 90 -72 0 -123 -24 -206 -95 l-55 -48 -17 48 c-20 55 -61 95 -115
110 -47 13 -65 12 -131 -6z m162 -41 c37 -18 68 -88 76 -166 1 -5 34 21 73 57
90 82 146 111 214 111 62 0 107 -28 154 -97 18 -26 34 -48 36 -48 1 0 40 27
86 60 131 94 237 113 307 54 79 -66 63 -178 -63 -449 -78 -168 -73 -200 25
-155 62 29 74 20 74 -54 -1 -73 -43 -156 -119 -232 -34 -33 -83 -71 -111 -84
-99 -48 -217 -23 -266 57 -20 32 -24 51 -24 123 1 84 1 87 67 225 70 148 98
228 98 281 0 37 -16 53 -62 61 -34 5 -35 4 -58 -48 -12 -30 -65 -176 -116
-326 -116 -338 -130 -372 -163 -384 -28 -11 -257 -14 -284 -4 -9 4 -17 12 -17
18 0 7 38 97 84 202 188 427 209 535 102 535 -19 0 -38 -6 -44 -12 -19 -24
-80 -184 -167 -438 -48 -140 -94 -267 -101 -282 l-15 -28 -124 -2 c-240 -4
-220 -6 -223 22 -2 17 38 107 116 260 128 256 172 369 179 471 5 59 3 69 -17
89 -17 17 -29 21 -53 16 -18 -3 -38 -2 -46 3 -47 30 132 158 251 180 50 9 91
4 131 -16z"/>
<path d="M3635 5571 c-90 -32 -136 -61 -199 -126 -122 -125 -257 -340 -316
-503 -82 -227 -70 -391 37 -498 53 -53 125 -84 198 -84 77 0 130 24 201 92 49
46 57 51 75 39 65 -40 109 -56 166 -59 53 -4 72 0 118 22 96 47 184 171 241
338 28 82 30 120 9 138 -21 17 -55 3 -93 -39 l-32 -36 6 30 c4 17 29 84 57
150 127 306 147 357 158 413 11 54 11 63 -5 87 -16 24 -23 27 -61 23 -26 -3
-85 -28 -151 -64 -60 -32 -111 -58 -113 -58 -3 -1 -8 11 -12 26 -29 108 -153
155 -284 109z m181 -32 c45 -21 84 -81 84 -127 0 -12 4 -22 9 -22 5 0 63 29
128 65 132 72 172 85 192 61 20 -24 -6 -115 -90 -313 -90 -211 -129 -317 -129
-349 0 -44 28 -40 81 12 26 26 52 45 55 41 28 -27 -88 -286 -161 -361 -103
-106 -233 -114 -342 -22 l-33 28 -50 -55 c-117 -128 -266 -141 -378 -34 -57
54 -75 101 -80 204 -4 78 0 106 22 185 74 257 287 573 444 656 102 54 180 64
248 31z"/>
<path d="M3683 5284 c-64 -67 -127 -192 -148 -289 -16 -79 -11 -120 19 -140
40 -29 51 -19 103 93 69 146 163 367 163 381 0 6 -17 11 -42 11 -38 0 -47 -5
-95 -56z m97 22 c0 -7 -143 -331 -171 -388 -13 -27 -26 -48 -31 -48 -15 0 -24
66 -15 115 20 114 150 325 200 325 9 0 17 -2 17 -4z"/>
</g>
</svg>
