<?xml version="1.0" standalone="no"?>
<!DOCTYPE svg PUBLIC "-//W3C//DTD SVG 20010904//EN"
 "http://www.w3.org/TR/2001/REC-SVG-20010904/DTD/svg10.dtd">
<svg version="1.0" xmlns="http://www.w3.org/2000/svg"
 width="3411.000000pt" height="1332.000000pt" viewBox="0 0 3411.000000 1332.000000"
 preserveAspectRatio="xMidYMid meet">

<g transform="translate(0.000000,1332.000000) scale(0.100000,-0.100000)"
fill="#000000" stroke="none">
<path d="M4810 12858 c-30 -4 -100 -16 -155 -24 -117 -19 -332 -80 -460 -131
-559 -222 -909 -616 -1007 -1131 -31 -164 -31 -459 -1 -647 36 -214 109 -447
218 -690 86 -192 146 -291 309 -505 35 -47 63 -86 62 -87 -1 -2 -47 20 -102
47 -132 66 -252 104 -409 131 -372 61 -912 -35 -1238 -222 -433 -247 -695
-706 -726 -1272 -24 -432 65 -852 269 -1272 376 -772 1068 -1330 1890 -1525
346 -82 464 -94 877 -87 333 5 379 10 584 62 419 107 793 319 1099 625 332
332 511 683 582 1140 18 115 17 540 -1 640 -52 294 -111 476 -231 717 -147
294 -343 570 -722 1013 -406 477 -575 692 -616 788 -34 78 -49 197 -35 277 16
90 52 148 116 186 51 29 54 30 167 26 97 -3 124 -7 170 -29 115 -52 174 -135
173 -243 -1 -122 -57 -218 -178 -305 -92 -67 -110 -95 -108 -176 2 -76 41
-145 137 -239 139 -138 243 -192 415 -215 290 -40 651 97 881 332 73 76 161
215 246 392 220 459 241 900 63 1320 -124 292 -404 591 -739 788 -88 52 -286
144 -390 181 -96 35 -330 95 -430 111 -58 9 -133 21 -166 26 -75 12 -469 11
-544 -2z m510 -98 c224 -24 424 -69 620 -142 606 -225 1022 -655 1131 -1168
26 -124 31 -367 10 -490 -41 -244 -143 -499 -293 -732 -206 -321 -699 -508
-1021 -388 -159 60 -354 266 -332 352 4 14 35 43 77 73 85 60 127 109 167 196
113 243 1 475 -262 545 -81 21 -245 18 -310 -6 -146 -55 -229 -215 -213 -412
6 -76 35 -187 62 -239 37 -72 238 -328 518 -659 259 -305 317 -376 422 -510
369 -475 565 -906 613 -1352 24 -214 6 -535 -39 -723 -133 -560 -552 -1054
-1135 -1340 -252 -124 -483 -190 -754 -215 -198 -19 -637 -8 -815 19 -335 52
-613 141 -900 289 -831 427 -1416 1306 -1465 2203 -34 615 169 1099 582 1392
227 162 605 272 972 284 261 8 464 -31 660 -130 321 -160 543 -460 610 -822
24 -125 16 -331 -15 -430 -26 -84 -73 -175 -105 -205 l-23 -22 -30 44 c-126
181 -313 238 -523 159 -208 -79 -276 -334 -152 -574 96 -183 299 -285 518
-259 264 30 488 176 597 388 70 134 92 223 92 369 0 132 -11 190 -70 370 -103
310 -208 489 -591 996 -126 167 -252 338 -281 379 -107 157 -246 488 -312 744
-54 214 -64 295 -64 516 0 188 2 215 28 325 111 481 417 815 934 1022 190 76
457 140 652 156 99 8 350 6 440 -3z m-940 -4057 c48 -121 98 -314 107 -409 6
-78 -13 -197 -48 -290 -46 -122 -141 -234 -264 -312 -61 -39 -218 -90 -299
-97 -253 -24 -458 156 -459 401 0 70 4 88 28 132 51 94 128 132 264 132 117
-1 200 -49 270 -159 44 -69 99 -88 160 -57 70 37 165 234 191 399 13 76 9 310
-5 367 -11 45 13 -2 55 -107z"/>
<path d="M29426 12329 c-66 -18 -86 -69 -66 -166 7 -32 34 -131 61 -220 26
-89 51 -179 55 -200 3 -21 26 -119 51 -218 85 -339 166 -826 200 -1205 25
-281 25 -785 0 -1025 -84 -795 -325 -1421 -756 -1966 -467 -591 -1145 -1046
-2066 -1390 -701 -261 -1564 -448 -2605 -564 -517 -57 -889 -83 -1690 -116
-361 -15 -1677 -15 -2125 0 -727 24 -1482 55 -1902 79 l-122 7 118 245 c65
135 145 301 178 370 357 738 593 1258 682 1503 53 145 64 186 116 422 102 466
129 880 80 1229 -29 210 -105 418 -207 569 -89 131 -238 258 -373 316 -93 41
-221 65 -345 64 -298 0 -563 -141 -664 -353 -25 -52 -31 -81 -34 -147 -7 -143
22 -193 169 -295 105 -74 131 -125 164 -323 30 -180 17 -392 -46 -740 -32
-175 -183 -650 -284 -890 -253 -602 -504 -1076 -833 -1575 -141 -214 -246
-325 -361 -383 -81 -41 -126 -46 -276 -27 -550 67 -1411 110 -2230 110 -851 0
-1419 -32 -2065 -116 -107 -14 -229 -30 -270 -34 -41 -5 -194 -32 -340 -61
-512 -99 -925 -217 -1275 -366 -426 -182 -748 -397 -973 -653 -91 -104 -246
-328 -339 -490 -178 -311 -296 -606 -349 -881 -26 -131 -29 -164 -29 -359 0
-198 2 -225 28 -345 66 -307 204 -553 446 -796 75 -74 173 -164 219 -198 194
-146 436 -280 699 -385 129 -51 484 -162 564 -176 30 -5 110 -21 178 -35 322
-68 566 -90 976 -90 309 0 461 11 654 45 633 114 1222 315 1881 644 264 132
331 169 595 324 1048 617 2022 1485 2526 2251 l73 111 381 0 c537 0 1340 -19
2500 -60 2602 -91 4133 -85 5485 21 525 41 917 84 1335 145 94 14 204 29 245
34 140 18 634 111 876 166 132 30 247 54 256 54 8 0 114 27 234 60 1147 314
2017 733 2679 1289 125 106 361 337 464 456 474 549 745 1163 827 1875 13 115
15 203 11 430 -5 295 -14 388 -62 640 -39 202 -44 223 -91 377 -24 78 -44 147
-44 153 0 21 -145 383 -208 515 -351 748 -906 1409 -1557 1853 -342 233 -767
412 -1110 465 -183 29 -270 36 -309 26z m269 -119 c805 -127 1669 -758 2272
-1660 396 -591 642 -1244 725 -1920 21 -166 17 -663 -5 -830 -151 -1115 -826
-2030 -1995 -2701 -1025 -589 -2377 -959 -4212 -1153 -921 -98 -1841 -138
-3115 -138 -923 0 -1366 10 -3090 67 -1022 34 -1514 46 -2150 51 l-670 6 -40
-68 c-52 -87 -198 -293 -294 -414 -258 -325 -642 -711 -1018 -1022 -992 -824
-2193 -1467 -3234 -1732 -371 -95 -639 -134 -974 -143 -929 -25 -1870 225
-2438 648 -359 267 -575 586 -662 974 -22 98 -31 388 -15 511 51 406 277 915
596 1345 539 724 1806 1151 3789 1279 650 42 1617 41 2370 0 270 -15 687 -47
912 -70 106 -11 215 -20 243 -20 96 0 217 56 333 154 113 95 397 525 631 955
409 751 671 1435 772 2016 34 200 43 464 20 615 -34 220 -72 290 -220 399 -52
38 -97 75 -102 82 -4 7 -9 44 -12 83 -3 56 1 83 17 126 50 132 198 241 401
296 87 23 270 24 363 1 351 -87 577 -396 649 -884 20 -133 16 -516 -6 -688
-40 -317 -124 -700 -192 -881 -104 -277 -281 -664 -793 -1733 -133 -277 -241
-505 -239 -506 4 -4 710 -40 1153 -60 1557 -69 2829 -69 3915 0 1842 117 3229
428 4258 955 310 158 562 320 829 530 140 110 456 425 567 565 452 569 703
1210 791 2015 35 318 30 822 -11 1205 -54 501 -185 1139 -340 1658 -35 116
-36 114 39 109 34 -2 116 -12 182 -22z"/>
<path d="M12495 4089 c-419 -29 -795 -184 -1057 -437 -113 -109 -177 -195
-232 -313 -47 -101 -61 -149 -71 -245 -15 -132 34 -289 127 -410 128 -166 388
-304 714 -380 314 -73 741 -8 1329 201 679 242 1475 643 2098 1056 254 169
483 346 590 457 l48 49 -233 7 c-831 25 -3032 35 -3313 15z m2570 -99 c286 -5
566 -12 622 -16 l103 -6 -53 -42 c-604 -490 -1765 -1100 -2622 -1379 -190 -62
-191 -63 -400 -111 -205 -48 -295 -59 -470 -60 -132 0 -163 3 -259 28 -289 74
-454 154 -587 286 -98 97 -131 156 -156 277 -16 73 -16 86 -1 159 23 114 52
184 118 282 160 238 441 424 795 527 100 29 214 44 400 55 201 11 1929 11
2510 0z"/>
<path d="M17580 12303 c-231 -26 -480 -101 -695 -209 -431 -218 -705 -550
-705 -854 0 -113 31 -140 162 -140 46 0 135 9 198 20 149 26 290 26 345 1 48
-21 89 -67 105 -115 9 -28 8 -54 -5 -128 -9 -51 -21 -118 -26 -148 -5 -30 -25
-113 -44 -185 -19 -71 -44 -168 -56 -215 -24 -99 -148 -501 -159 -513 -4 -4
-20 11 -36 34 -34 49 -128 130 -184 159 -165 84 -404 81 -645 -7 -104 -38
-270 -124 -350 -181 -115 -81 -367 -347 -534 -562 -240 -311 -385 -520 -556
-805 -218 -362 -423 -809 -483 -1057 l-18 -69 -17 40 c-35 78 -152 116 -286
92 -89 -16 -128 -45 -137 -102 -11 -67 -85 -151 -157 -178 -25 -10 -28 -9 -23
6 3 10 14 55 25 99 29 113 161 424 336 789 216 451 297 660 316 814 24 207
-47 381 -192 468 -30 18 -94 44 -144 59 -81 25 -105 28 -245 28 -140 0 -163
-3 -245 -28 -230 -70 -417 -187 -646 -403 l-56 -54 -12 48 c-7 26 -30 85 -50
129 -98 210 -232 336 -416 394 -104 33 -259 31 -380 -5 -238 -70 -456 -225
-501 -355 -8 -22 -11 -47 -8 -57 21 -65 50 -87 159 -118 33 -10 73 -24 89 -32
28 -14 28 -16 22 -73 -8 -65 -34 -146 -94 -290 -66 -156 -80 -186 -334 -695
-281 -564 -426 -868 -646 -1350 -166 -364 -174 -386 -180 -451 -13 -163 68
-244 273 -274 91 -13 518 -13 664 0 235 21 286 49 383 208 42 69 218 431 218
448 0 3 26 69 59 147 62 150 145 360 234 592 215 561 274 711 345 880 30 72
70 160 89 196 38 74 48 79 161 79 48 0 52 -2 52 -23 0 -90 -101 -362 -288
-772 -260 -570 -245 -534 -288 -735 -83 -391 -47 -610 128 -776 107 -102 251
-172 396 -195 90 -13 214 2 305 37 194 76 415 260 612 509 175 222 285 409
433 735 9 20 10 15 4 -30 -4 -30 -7 -138 -7 -240 0 -215 13 -278 92 -440 40
-82 58 -107 142 -190 224 -222 538 -320 846 -265 257 45 511 234 795 590 51
63 96 113 100 110 4 -2 10 -20 13 -39 8 -51 80 -198 132 -271 97 -137 263
-251 400 -276 99 -19 249 -5 338 29 334 130 669 493 903 977 75 156 105 244
135 390 19 95 20 119 11 179 -15 98 -56 173 -115 213 -140 94 -292 50 -377
-108 -39 -74 -53 -68 -58 29 -7 127 115 586 239 897 120 299 232 533 616 1285
318 621 445 958 499 1322 21 141 15 317 -15 433 -67 257 -242 436 -506 516
-94 29 -331 46 -455 32z m395 -122 c249 -65 407 -215 471 -451 26 -92 26 -339
0 -475 -61 -330 -213 -704 -546 -1345 -414 -798 -581 -1177 -704 -1610 -75
-259 -100 -393 -94 -495 7 -112 39 -168 104 -180 50 -10 93 23 139 105 50 91
80 115 144 114 125 -2 190 -122 161 -296 -37 -224 -196 -556 -393 -818 -85
-114 -257 -293 -347 -361 -80 -61 -246 -143 -321 -160 -31 -6 -94 -10 -141 -7
-72 4 -97 10 -162 41 -96 46 -144 83 -212 165 -94 115 -165 297 -181 467 l-8
79 -74 -94 c-213 -272 -275 -345 -381 -450 -174 -174 -322 -266 -499 -311 -70
-18 -105 -21 -205 -17 -106 4 -134 9 -231 42 -154 52 -244 105 -340 201 -169
169 -223 330 -212 635 11 306 106 615 324 1050 273 548 711 1173 1092 1563
175 179 324 272 557 350 367 122 637 18 755 -290 13 -35 28 -63 32 -63 33 0
205 526 306 936 115 470 116 529 2 645 -44 45 -68 61 -110 73 -74 22 -216 20
-376 -4 -71 -11 -156 -20 -187 -20 l-58 0 0 38 c0 55 34 181 66 244 39 78 78
132 153 211 202 214 524 389 866 470 160 38 233 46 390 42 99 -3 164 -10 220
-24z m-6068 -2745 c208 -56 361 -251 435 -558 12 -54 26 -98 29 -98 3 0 66 57
140 126 319 298 543 419 814 440 87 7 247 -15 320 -44 143 -55 206 -159 207
-337 1 -167 -37 -269 -347 -931 -223 -476 -320 -723 -332 -847 -5 -61 -4 -67
20 -91 37 -37 92 -35 169 6 95 51 163 136 193 245 5 15 105 27 157 19 55 -9
78 -23 78 -47 0 -38 -90 -253 -161 -383 -137 -254 -298 -475 -469 -646 -120
-120 -210 -188 -325 -246 -164 -81 -282 -91 -438 -34 -345 126 -436 372 -316
860 36 148 52 192 167 440 291 631 386 879 399 1047 5 67 4 73 -20 97 -25 24
-32 26 -124 26 -105 0 -167 -12 -197 -38 -51 -46 -155 -289 -446 -1047 -277
-721 -370 -946 -486 -1176 -83 -164 -121 -221 -166 -248 -57 -35 -182 -46
-538 -46 -291 0 -342 2 -392 18 -107 33 -133 102 -84 229 85 226 622 1359 891
1883 147 286 247 508 302 673 48 143 58 221 33 266 -19 36 -79 70 -158 91 -71
18 -112 35 -112 46 0 4 15 27 33 51 71 93 262 209 407 247 90 24 241 27 317 7z"/>
<path d="M16220 9133 c-57 -27 -175 -156 -257 -281 -248 -375 -429 -893 -392
-1121 13 -81 49 -152 96 -188 32 -25 45 -28 108 -28 61 0 77 4 113 28 69 45
89 86 107 217 36 259 84 405 235 720 59 124 115 243 125 265 28 69 55 197 55
269 0 64 -2 70 -34 102 -28 28 -41 34 -77 34 -24 0 -60 -8 -79 -17z m90 -125
c-1 -101 -36 -204 -148 -435 -180 -371 -224 -503 -262 -783 -15 -110 -25 -135
-65 -160 -44 -27 -90 -26 -120 4 -101 101 -32 466 162 862 147 300 337 554
414 554 16 0 19 -7 19 -42z"/>
<path d="M19331 11584 c-207 -56 -378 -208 -496 -443 -47 -93 -63 -139 -82
-236 -31 -157 -12 -323 51 -428 34 -58 131 -152 191 -187 77 -44 193 -79 286
-86 326 -24 598 218 675 600 25 123 16 326 -20 431 -67 197 -174 306 -343 350
-71 19 -191 18 -262 -1z m291 -114 c205 -76 304 -414 213 -725 -82 -281 -258
-435 -500 -438 -153 -2 -266 38 -367 131 -105 98 -148 228 -127 387 43 329
282 620 549 669 51 9 178 -4 232 -24z"/>
<path d="M26850 10313 c-68 -11 -254 -66 -316 -92 -194 -83 -333 -180 -499
-346 -450 -451 -887 -1169 -1096 -1797 -97 -295 -134 -518 -126 -768 8 -248
59 -427 168 -588 101 -148 285 -292 459 -360 230 -90 461 -82 675 24 123 60
208 126 355 275 l125 127 73 -53 c108 -80 279 -161 389 -185 400 -87 746 103
1044 576 178 281 373 810 356 963 -7 65 -41 94 -115 99 -81 6 -135 -19 -193
-89 -24 -29 -70 -80 -101 -113 l-58 -61 6 35 c25 137 120 388 319 845 48 110
102 236 120 280 18 44 45 107 60 140 97 214 211 552 235 695 22 130 -4 230
-74 281 -24 19 -47 24 -104 27 -82 5 -139 -11 -296 -80 -75 -33 -360 -185
-391 -208 -5 -4 -41 -25 -80 -45 -38 -21 -90 -51 -115 -66 l-45 -28 -12 61
c-20 98 -85 217 -159 291 -120 120 -252 168 -458 166 -67 -1 -132 -4 -146 -6z
m302 -104 c207 -44 368 -238 368 -443 0 -35 3 -71 6 -80 15 -39 71 -15 381
162 464 265 636 328 704 256 21 -23 24 -34 23 -102 -3 -167 -84 -396 -394
-1117 -261 -606 -342 -833 -344 -961 -1 -76 18 -104 74 -104 55 0 123 51 203
152 74 94 106 118 158 118 l32 0 -6 -52 c-3 -29 -22 -109 -42 -178 -134 -458
-384 -880 -637 -1073 -140 -107 -280 -157 -437 -157 -194 0 -379 76 -586 241
l-73 58 -88 -97 c-180 -198 -304 -301 -439 -364 -111 -51 -183 -68 -296 -68
-222 0 -458 111 -625 293 -291 319 -301 853 -27 1557 56 145 209 456 303 619
257 446 636 921 868 1091 149 109 351 203 516 240 94 21 278 26 358 9z"/>
<path d="M27009 9493 c-82 -41 -238 -202 -335 -348 -144 -216 -274 -500 -330
-720 -23 -93 -28 -131 -28 -245 -1 -151 9 -184 76 -246 69 -64 119 -80 170
-53 35 19 236 452 577 1241 152 352 155 359 139 370 -27 17 -85 28 -149 28
-51 0 -77 -6 -120 -27z m141 -80 c0 -10 -42 -112 -130 -313 -40 -91 -92 -210
-115 -265 -24 -55 -73 -167 -110 -250 -37 -82 -84 -188 -105 -235 -21 -47 -70
-152 -109 -233 -76 -161 -76 -161 -128 -105 -33 35 -43 72 -43 158 0 156 60
372 167 600 137 291 349 573 475 630 43 20 98 27 98 13z"/>
<path d="M21010 10009 c-138 -21 -373 -112 -545 -212 -172 -100 -360 -268
-404 -362 -31 -66 -27 -152 10 -191 44 -47 82 -56 204 -51 60 3 119 1 131 -3
12 -5 27 -23 33 -41 25 -72 7 -298 -35 -449 -113 -400 -215 -626 -728 -1615
-90 -172 -191 -397 -208 -460 -9 -33 -9 -56 1 -99 15 -69 50 -112 110 -138 45
-19 57 -19 381 -9 524 18 783 31 813 43 34 13 56 55 130 248 66 169 130 353
267 760 54 162 129 381 165 485 36 105 81 233 99 285 42 121 102 277 178 460
70 167 96 222 112 232 16 11 55 10 98 -3 54 -14 72 -53 72 -154 1 -70 -6 -102
-53 -250 -114 -361 -371 -980 -707 -1705 -89 -192 -87 -279 9 -333 52 -30 122
-43 307 -58 252 -20 599 1 748 46 77 23 116 64 174 179 77 154 160 378 368
996 186 553 304 895 354 1025 15 39 34 90 43 115 8 25 28 71 44 103 27 52 32
57 62 57 17 0 51 -9 73 -19 50 -23 57 -49 42 -161 -22 -170 -130 -447 -344
-890 -155 -320 -178 -383 -200 -551 -27 -208 -4 -384 72 -539 194 -396 725
-491 1159 -206 280 183 504 455 625 758 89 224 81 474 -18 571 -44 42 -82 59
-138 59 -50 0 -97 -20 -190 -78 -40 -24 -81 -44 -93 -44 -18 0 -20 4 -15 28
14 56 55 152 134 317 202 419 333 737 365 888 42 193 47 230 48 332 1 190 -48
320 -159 424 -118 111 -245 156 -439 155 -258 0 -468 -94 -807 -361 -60 -47
-110 -84 -112 -82 -2 2 -19 29 -38 60 -83 131 -224 267 -335 323 -152 76 -327
86 -503 27 -168 -57 -348 -179 -537 -364 -63 -62 -94 -86 -97 -76 -3 8 -10 34
-16 59 -74 299 -264 463 -550 475 -52 2 -124 -1 -160 -6z m304 -120 c194 -59
314 -253 333 -536 3 -51 10 -93 14 -93 4 0 84 74 178 164 201 193 337 299 464
360 115 56 193 76 294 76 220 0 399 -131 571 -417 l50 -83 63 47 c35 26 105
79 155 119 182 145 346 243 490 292 263 90 541 26 664 -153 53 -77 73 -156 73
-285 0 -257 -93 -531 -392 -1159 -170 -356 -188 -425 -132 -482 25 -25 37 -29
83 -29 55 0 85 13 205 89 128 81 206 7 204 -194 -3 -343 -337 -820 -714 -1020
-136 -72 -223 -97 -362 -102 -89 -4 -138 -1 -188 11 -173 41 -323 154 -390
296 -56 119 -71 195 -70 350 1 226 24 301 208 680 252 519 348 792 348 986 -1
109 -29 150 -126 184 -79 28 -170 27 -196 -2 -47 -50 -168 -376 -441 -1183
-357 -1057 -429 -1235 -516 -1271 -133 -56 -722 -70 -934 -23 -93 21 -101 63
-39 196 433 925 762 1758 785 1993 6 58 -14 168 -40 219 -34 64 -207 99 -285
57 -27 -14 -43 -38 -86 -129 -117 -246 -209 -495 -515 -1397 -208 -613 -314
-904 -339 -932 -7 -8 -322 -24 -768 -38 -394 -13 -393 -13 -393 97 0 63 58
194 251 568 386 748 518 1033 619 1334 82 246 105 361 105 536 0 130 -2 144
-25 189 -42 84 -60 91 -211 88 -149 -3 -169 3 -169 52 0 145 443 454 769 537
164 41 289 44 405 8z"/>
<path d="M8745 9556 c-231 -44 -473 -154 -650 -295 -201 -159 -485 -496 -713
-846 -279 -428 -504 -915 -596 -1288 -62 -253 -70 -313 -71 -522 0 -199 6
-241 52 -390 96 -305 321 -524 659 -641 74 -26 90 -28 239 -28 155 0 163 1
245 32 171 64 332 181 497 358 l88 95 80 -56 c99 -70 224 -134 335 -171 79
-27 95 -29 240 -29 149 1 158 2 237 32 321 122 593 434 800 916 86 200 166
451 179 558 11 98 -39 152 -141 152 -74 0 -125 -31 -193 -115 -70 -88 -121
-142 -128 -136 -12 13 51 223 119 395 77 195 107 267 247 588 145 336 272 653
317 795 23 75 53 238 53 293 0 147 -69 221 -205 219 -85 -1 -131 -15 -300 -94
-127 -60 -197 -97 -380 -203 -49 -29 -123 -71 -162 -93 l-73 -41 0 30 c0 78
-68 223 -142 304 -114 125 -254 185 -448 191 -71 2 -142 -2 -185 -10z m337
-112 c131 -39 230 -118 286 -230 42 -84 52 -120 57 -207 2 -42 7 -81 10 -87
17 -28 79 0 370 167 360 206 530 283 633 286 70 2 94 -21 100 -97 12 -149 -77
-414 -363 -1076 -287 -665 -365 -877 -373 -1016 -4 -73 -2 -84 17 -103 39 -39
110 -21 185 48 15 14 54 60 86 102 66 86 116 118 156 100 27 -12 27 -14 -13
-176 -58 -236 -210 -579 -351 -790 -370 -557 -832 -646 -1322 -254 l-75 60
-74 -83 c-173 -193 -286 -290 -425 -364 -206 -109 -425 -111 -651 -5 -447 209
-607 632 -480 1266 130 647 648 1564 1177 2081 176 172 329 268 544 340 188
63 373 77 506 38z"/>
<path d="M8909 8733 c-69 -34 -214 -178 -296 -293 -142 -201 -261 -441 -332
-665 -109 -348 -91 -542 58 -637 56 -35 103 -37 136 -4 29 29 77 123 204 405
244 538 514 1169 507 1186 -7 20 -72 35 -152 35 -56 0 -81 -5 -125 -27z m148
-85 c-3 -7 -67 -155 -143 -328 -186 -430 -204 -470 -257 -586 -26 -56 -47
-104 -47 -107 0 -3 -45 -99 -100 -212 l-99 -207 -29 21 c-71 50 -86 180 -43
380 94 445 488 1051 684 1051 27 0 38 -4 34 -12z"/>
</g>
</svg>
